<svg width="48" height="48" fill="none" xmlns="http://www.w3.org/2000/svg"><circle cx="24" cy="24" r="24" fill="#0061D9"/><path d="M21.905 24.942h1.88c2.073 0 3.352.989 3.341 2.761-.01 1.504-1.278 2.578-3.169 2.578-1.944 0-3.266-.977-3.384-2.492h-2.31c.151 2.664 2.375 4.501 5.694 4.501 3.233 0 5.618-1.858 5.618-4.587 0-2.17-1.525-3.555-3.802-3.76v-.053c1.9-.398 3.265-1.698 3.265-3.642 0-2.31-1.944-4.039-5.102-4.039-3.03 0-5.146 1.73-5.34 4.436h2.256c.119-1.546 1.365-2.46 3.084-2.46 1.826 0 2.76.946 2.76 2.396s-1.203 2.492-2.975 2.492h-1.816v1.87z" fill="#fff"/></svg>