<svg width="24" height="24" fill="none" xmlns="http://www.w3.org/2000/svg"><path d="M19.145 17.306c.565.322 1.034.78 1.359 1.328a3.53 3.53 0 01.496 1.8V22H3v-1.567c0-.63.17-1.25.496-1.799a3.712 3.712 0 011.358-1.328l3.601-2.05c.282-.162.516-.39.679-.665.162-.274.248-.584.247-.9v-.145c.801.46 1.689.728 2.619.728.93 0 1.817-.268 2.618-.728v.146c0 .315.085.625.247.9.163.273.397.502.68.663l3.6 2.051zM16.737 6.988c0 3.012-2.12 5.922-4.737 5.922S7.263 10 7.263 6.99C7.263 3.974 9.383 2 12 2s4.737 1.977 4.737 4.988z" fill="#fff" opacity=".5"/></svg>